<?xml version="1.0" standalone="no"?>
<!DOCTYPE svg PUBLIC "-//W3C//DTD SVG 20010904//EN"
 "http://www.w3.org/TR/2001/REC-SVG-20010904/DTD/svg10.dtd">
<svg version="1.0" xmlns="http://www.w3.org/2000/svg"
 width="1280.000000pt" height="723.000000pt" viewBox="0 0 1280.000000 723.000000"
 preserveAspectRatio="xMidYMid meet">

<g transform="translate(0.000000,723.000000) scale(0.100000,-0.100000)"
fill="#000000" stroke="none">
<path d="M6467 7034 c-8 -14 -135 -642 -212 -1054 -46 -242 -67 -345 -74 -358
-5 -8 -57 -32 -116 -54 l-108 -38 -758 0 -757 0 -263 129 c-145 71 -403 197
-573 280 -170 83 -310 151 -312 151 -2 0 -3 -1029 -2 -2287 l3 -2287 240 -66
c132 -37 350 -100 485 -140 135 -40 360 -105 500 -145 140 -41 263 -77 273
-80 11 -5 17 -2 17 8 0 21 -91 286 -204 595 l-97 263 3 449 c2 307 6 452 14
460 8 8 87 -117 284 -447 150 -252 284 -475 297 -495 14 -21 65 -106 113 -188
l87 -151 -14 -52 c-7 -28 -13 -59 -13 -68 0 -15 -16 -17 -119 -20 l-120 -4
-34 -33 c-19 -18 -48 -61 -66 -94 -25 -49 -31 -73 -31 -123 0 -98 9 -124 60
-177 l46 -48 122 0 122 0 24 -37 c36 -57 104 -118 166 -150 50 -26 64 -28 165
-28 103 0 113 2 164 30 29 16 72 46 96 67 l43 38 32 -55 c46 -80 57 -85 178
-85 l104 0 37 38 c20 20 48 53 62 72 l26 35 39 -34 c21 -19 72 -50 113 -70 74
-35 79 -36 197 -36 107 0 126 3 172 24 l52 24 24 -22 c23 -22 28 -22 222 -19
216 3 224 5 305 69 l35 28 39 -49 c38 -48 39 -49 112 -55 95 -9 133 -1 168 35
16 17 34 30 41 30 6 0 41 -14 77 -31 170 -79 338 -49 469 84 101 103 168 278
168 442 0 78 -14 68 190 124 671 183 788 216 796 223 7 8 -55 159 -241 583
-75 171 -142 322 -148 337 -9 23 -8 31 8 49 18 19 233 209 466 410 238 206
541 470 599 523 142 129 161 149 153 156 -4 4 -82 35 -173 70 -91 34 -235 89
-320 122 -203 79 -812 308 -816 308 -16 0 18 72 162 343 92 172 210 391 264
487 54 96 166 301 250 455 84 154 182 331 217 394 35 62 62 115 60 117 -4 4
-242 -60 -872 -233 -681 -187 -787 -215 -791 -210 -3 3 -1 28 4 56 12 64 -1
134 -32 181 -40 60 -223 257 -262 281 -129 80 -346 -65 -471 -316 -37 -74 -63
-160 -63 -212 0 -38 -1 -38 -58 -56 -41 -12 -90 -17 -175 -17 l-118 0 -21 48
c-122 283 -167 379 -425 902 -131 267 -253 514 -269 549 -17 36 -33 60 -37 55z
m114 -936 c16 -51 18 -71 10 -87 -17 -31 -15 -4101 2 -4102 27 -1 -47 -22
-226 -65 -104 -24 -195 -44 -203 -44 -12 0 -14 238 -14 1589 l0 1589 54 49
c59 54 57 47 106 288 16 77 54 255 84 395 31 140 67 323 82 405 14 83 28 157
31 165 5 16 40 -70 74 -182z m1500 -81 c107 -72 118 -287 25 -480 -62 -129
-188 -244 -287 -262 -86 -16 -172 45 -199 141 -18 62 -8 204 19 275 49 129
174 284 264 328 59 28 134 28 178 -2z m-4364 -391 c159 -71 476 -227 506 -248
15 -11 37 -38 49 -61 11 -23 109 -181 218 -352 108 -170 235 -371 282 -445 47
-74 122 -193 168 -265 45 -71 148 -234 227 -360 80 -127 157 -246 173 -265
l28 -34 7 230 c4 126 5 469 3 762 l-5 534 23 8 c13 5 95 41 181 79 132 58 433
171 458 171 3 0 5 -12 3 -26 -2 -21 -13 -30 -48 -44 -25 -9 -119 -48 -210 -85
-91 -37 -201 -83 -245 -101 l-80 -32 -5 -883 -5 -883 -76 114 c-79 119 -197
301 -283 437 -28 43 -79 123 -115 178 -60 93 -178 279 -297 469 -61 98 -105
167 -176 276 -106 164 -280 445 -303 491 -13 25 -34 52 -47 60 -13 8 -113 57
-223 108 -110 52 -206 98 -212 104 -10 7 -13 -376 -13 -1912 l0 -1921 -50 0
-50 0 0 1970 c0 1279 3 1970 10 1970 5 0 54 -20 107 -44z m5636 12 c-4 -7 -25
-39 -46 -71 -104 -159 -241 -404 -389 -699 -65 -131 -130 -257 -143 -280 l-25
-43 0 453 c0 353 3 453 13 456 147 44 369 116 462 150 137 50 139 50 128 34z
m-777 -3694 c-2 -6 -113 -15 -302 -22 -165 -7 -323 -15 -351 -18 l-53 -6 0
1489 0 1490 82 69 c46 38 139 113 208 166 69 54 147 116 173 139 27 23 92 65
145 92 l97 49 3 -1718 c1 -946 0 -1724 -2 -1730z m-1436 3133 c0 -2 -10 -12
-22 -23 l-23 -19 19 23 c18 21 26 27 26 19z m304 -39 c9 -34 8 -35 -24 -48
-35 -15 -36 -14 -45 21 -6 23 -3 28 22 37 40 15 40 15 47 -10z m-347 -2196
c-1 -400 -2 -70 -2 733 0 803 1 1130 2 727 2 -404 2 -1061 0 -1460z m-100
2156 c-3 -8 -6 -5 -6 6 -1 11 2 17 5 13 3 -3 4 -12 1 -19z m337 -153 c5 -22 4
-26 -4 -15 -5 8 -10 24 -10 34 0 26 6 18 14 -19z m-39 -350 c9 -110 20 -249
25 -310 24 -271 31 -364 45 -570 8 -121 19 -314 25 -430 17 -350 51 -968 71
-1278 6 -93 9 -170 7 -172 -2 -3 -40 3 -84 12 l-80 17 -17 1125 c-15 935 -21
2111 -10 1871 1 -36 10 -155 18 -265z m1767 -469 c98 -36 188 -70 200 -76 41
-17 300 -111 441 -160 77 -27 142 -51 145 -55 8 -8 23 5 -279 -224 -134 -102
-328 -252 -431 -333 l-187 -148 -65 46 c-36 25 -66 49 -66 54 0 14 483 451
600 542 25 20 30 28 20 32 -51 18 -681 247 -707 257 l-33 13 0 92 0 92 93 -33
c50 -18 172 -63 269 -99z m-4740 -296 c20 -25 104 -146 187 -270 83 -124 156
-232 161 -240 12 -17 118 -179 174 -265 21 -33 101 -158 178 -279 259 -404
498 -769 512 -778 17 -12 4 -16 -58 -20 l-58 -3 -56 90 c-183 299 -366 586
-772 1208 -90 138 -199 310 -242 380 -73 120 -78 132 -78 185 0 31 4 52 8 47
5 -6 25 -30 44 -55z m5720 -89 l37 -16 -165 -125 c-92 -69 -189 -142 -216
-162 l-51 -36 -26 24 c-14 13 -32 24 -39 24 -25 0 -7 17 103 101 61 46 148
113 195 150 90 72 89 72 162 40z m-1017 -11 c3 -6 -1 -7 -9 -4 -18 7 -21 14
-7 14 6 0 13 -4 16 -10z m95 -45 c25 -13 41 -24 35 -24 -5 0 -30 11 -55 24
-25 13 -40 24 -35 24 6 0 30 -11 55 -24z m-33 -1253 c95 -194 173 -357 173
-362 0 -5 -22 -21 -49 -34 -48 -25 -71 -25 -50 0 7 9 4 24 -12 55 -20 39 -44
100 -116 289 -13 36 -51 131 -83 212 -32 81 -62 164 -66 185 -7 36 -6 37 11
23 10 -8 97 -174 192 -368z m-2085 -304 c-8 -8 -9 -4 -5 13 4 13 8 18 11 10 2
-7 -1 -18 -6 -23z m-2668 -383 c31 -87 55 -160 53 -161 -3 -3 -487 160 -484
162 1 2 56 -5 122 -15 66 -10 151 -22 189 -26 l69 -7 -7 108 c-4 60 -5 106 -2
103 3 -3 30 -76 60 -164z m1396 -15 c41 -21 100 -83 100 -105 0 -7 3 -20 6
-29 5 -13 -3 -16 -51 -16 -49 0 -60 4 -76 24 -54 69 -189 50 -189 -25 0 -38
31 -57 111 -70 88 -13 124 -26 160 -56 41 -35 59 -74 59 -128 0 -92 -62 -162
-165 -185 -123 -27 -259 49 -281 158 l-6 32 55 0 c45 0 57 -3 61 -18 12 -37
54 -65 104 -70 61 -5 106 16 120 58 18 50 -14 75 -128 100 -109 24 -146 43
-177 90 -26 37 -31 115 -12 153 53 103 198 144 309 87z m658 -27 c3 -50 2 -51
-27 -58 -17 -3 -56 -5 -88 -4 l-58 3 -3 -247 -2 -247 -50 0 -50 0 -2 248 -3
247 -82 3 -83 3 0 52 0 52 223 0 222 0 3 -52z m212 -158 c0 -280 9 -305 114
-305 33 0 52 6 73 24 l28 24 5 234 5 233 50 0 50 0 3 -203 c4 -253 -4 -301
-62 -358 -93 -94 -262 -79 -333 28 l-28 41 -3 249 -3 248 51 0 50 0 0 -215z
m1180 -90 l0 -305 -50 0 -50 0 0 305 0 305 50 0 50 0 0 -305z m537 265 c118
-58 178 -165 171 -300 -10 -159 -119 -273 -276 -287 -93 -9 -164 18 -233 87
-68 68 -94 132 -93 235 1 112 53 203 150 260 89 53 180 54 281 5z m-967 20
c62 -17 142 -73 176 -123 85 -123 59 -301 -57 -401 -64 -54 -112 -66 -271 -66
l-138 0 0 300 0 300 128 0 c70 0 143 -5 162 -10z m-2062 -347 l-3 -48 -97 -3
-98 -3 0 51 0 50 101 0 100 0 -3 -47z"/>
<path d="M7873 5949 c-98 -48 -191 -166 -227 -288 -15 -50 -23 -191 -11 -179
4 3 10 44 15 92 7 68 16 99 45 154 39 74 141 191 168 193 33 3 37 4 36 12 0 5
8 15 18 23 27 20 4 17 -44 -7z"/>
<path d="M7921 5914 c4 -24 -4 -32 -37 -38 -80 -16 -172 -142 -181 -252 -11
-119 45 -214 125 -214 122 1 260 168 270 328 l4 63 -45 44 c-26 24 -60 46 -79
50 -18 4 -39 12 -46 18 -7 6 -12 6 -11 1z m-7 -110 c19 -48 -71 -134 -112
-107 -44 28 13 123 74 123 20 0 34 -6 38 -16z"/>
<path d="M7731 5329 c8 -5 34 -8 59 -8 53 1 44 6 -24 12 -30 3 -43 1 -35 -4z"/>
<path d="M8960 5351 l-75 -28 -3 -102 c-1 -55 1 -101 6 -101 14 0 36 29 101
136 58 97 70 125 54 123 -5 0 -42 -13 -83 -28z"/>
<path d="M8092 1519 c-86 -43 -125 -156 -88 -254 39 -102 170 -154 264 -106
75 39 112 97 112 177 0 153 -152 250 -288 183z"/>
<path d="M7162 1348 l3 -193 75 -2 c66 -3 81 0 125 25 95 52 127 166 75 262
-36 65 -108 100 -207 100 l-73 0 2 -192z"/>
</g>
</svg>
